<?xml version="1.0" encoding="UTF-8"?>
<svg width="21px" height="21px" viewBox="0 0 21 21" x="0px" y="0px" version="1.1" xmlns="http://www.w3.org/2000/svg" xmlns:xlink="http://www.w3.org/1999/xlink">
  <style type="text/css">
    .fill-black { fill: #4A4A4A; }
  </style>
  <path class="fill-black" d="M10.1071484,0 C4.52612599,0 0,4.66692751 0,10.4242766 C0,15.0297719 2.89600082,18.9364759 6.91267391,20.3148609 C7.41840365,20.4108487 7.60270025,20.0889696 7.60270025,19.8125247 C7.60270025,19.5648761 7.59401287,18.9095993 7.58904865,18.0399497 C4.77743954,18.6696298 4.18421546,16.6423672 4.18421546,16.6423672 C3.72440474,15.4380401 3.06168161,15.1174408 3.06168161,15.1174408 C2.14392176,14.4711228 3.13118066,14.4839212 3.13118066,14.4839212 C4.14574277,14.5575118 4.67939623,15.5583448 4.67939623,15.5583448 C5.58102237,17.1511026 7.04546675,16.691001 7.62131607,16.4241549 C7.71315411,15.7509603 7.97439609,15.2914987 8.26294128,15.0310517 C6.0184941,14.7680451 3.65862885,13.8734387 3.65862885,9.8790658 C3.65862885,8.74129025 4.05266367,7.81020845 4.6992531,7.08198091 C4.59500452,6.81833438 4.24812977,5.75798899 4.79853747,4.32329114 C4.79853747,4.32329114 5.64679826,4.04300672 7.57787916,5.39195546 C8.3839441,5.16030487 9.24895913,5.0451195 10.1083894,5.04064006 C10.9671992,5.0451195 11.8315937,5.16030487 12.6388997,5.39195546 C14.5687395,4.04300672 15.4157593,4.32329114 15.4157593,4.32329114 C15.967408,5.75798899 15.6205333,6.81833438 15.5169052,7.08198091 C16.1647357,7.81020845 16.5556679,8.74129025 16.5556679,9.8790658 C16.5556679,13.8836774 14.1920795,14.7648455 11.9408065,15.0227328 C12.3031944,15.3446119 12.6264891,15.9806912 12.6264891,16.9527278 C12.6264891,18.3464708 12.6140786,19.4708081 12.6140786,19.8125247 C12.6140786,20.0915293 12.7965136,20.4159681 13.3090691,20.314221 C17.3226396,18.9326364 20.2161583,15.0284921 20.2161583,10.4242766 C20.2161583,4.66692751 15.6900323,0 10.1071484,0"></path>
</svg>